<?xml version="1.0" standalone="no"?>
<!DOCTYPE svg PUBLIC "-//W3C//DTD SVG 20010904//EN"
 "http://www.w3.org/TR/2001/REC-SVG-20010904/DTD/svg10.dtd">
<svg version="1.0" xmlns="http://www.w3.org/2000/svg"
 width="2000.000000pt" height="1500.000000pt" viewBox="0 0 2000.000000 1500.000000"
 preserveAspectRatio="xMidYMid meet">

<g transform="translate(0.000000,1500.000000) scale(0.100000,-0.100000)"
fill="#000000" stroke="none">
<path d="M0 7500 l0 -7500 10000 0 10000 0 0 7500 0 7500 -10000 0 -10000 0 0
-7500z m10525 4976 c1023 -115 1925 -502 2713 -1163 150 -126 449 -425 575
-575 699 -834 1093 -1798 1177 -2882 13 -166 13 -546 0 -712 -84 -1084 -478
-2048 -1177 -2882 -126 -150 -425 -449 -575 -575 -786 -659 -1694 -1049 -2708
-1162 -199 -23 -665 -31 -871 -16 -745 55 -1441 259 -2074 610 -1333 739
-2265 2047 -2514 3530 -57 334 -65 451 -65 851 0 399 9 518 64 848 275 1632
1374 3046 2893 3721 523 233 1063 370 1657 420 161 14 741 6 905 -13z"/>
<path d="M9700 12409 c-729 -44 -1464 -259 -2097 -615 -402 -225 -746 -487
-1078 -819 -401 -400 -698 -815 -945 -1320 -605 -1235 -661 -2679 -153 -3964
330 -836 898 -1581 1618 -2121 1184 -889 2696 -1198 4131 -845 640 158 1227
435 1759 830 368 273 739 644 1010 1010 1019 1375 1255 3156 628 4745 -331
839 -912 1596 -1638 2135 -934 694 -2074 1034 -3235 964z m819 -133 c1485
-168 2792 -995 3572 -2261 579 -939 813 -2042 669 -3152 -158 -1211 -796
-2342 -1755 -3108 -650 -520 -1410 -859 -2225 -994 -421 -70 -971 -80 -1385
-25 -549 72 -1029 217 -1510 454 -823 405 -1498 1020 -1979 1800 -404 656
-639 1390 -697 2179 -15 203 -7 650 15 846 64 570 214 1088 466 1600 601 1227
1694 2137 3015 2510 283 80 609 138 925 165 163 13 721 5 889 -14z"/>
<path d="M9906 10345 c-3 -9 -6 -79 -6 -155 0 -159 -7 -150 106 -150 66 0 74
2 74 19 0 38 11 51 46 51 130 0 185 115 99 208 l-33 37 -140 3 c-122 3 -140 1
-146 -13z m235 -75 c39 -22 15 -100 -32 -100 -16 0 -19 7 -19 55 0 59 9 67 51
45z"/>
<path d="M9334 10296 c-61 -19 -102 -47 -114 -77 -22 -51 9 -103 71 -119 42
-12 75 -38 62 -51 -4 -4 -30 -9 -58 -11 -42 -3 -50 -6 -53 -24 -6 -43 24 -57
112 -52 138 8 228 71 211 149 -7 32 -36 50 -112 69 -23 6 -45 15 -48 21 -11
17 15 38 53 41 40 3 54 27 32 53 -15 19 -99 19 -156 1z"/>
<path d="M10522 10254 c-103 -107 -193 -217 -185 -224 4 -4 22 -11 39 -14 27
-6 35 -3 53 19 18 24 25 26 63 20 69 -12 86 -21 93 -54 7 -33 9 -34 113 -56
91 -19 92 -19 92 2 0 29 -100 321 -114 332 -7 6 -34 14 -60 17 -46 7 -48 6
-94 -42z m32 -90 c10 -27 7 -64 -6 -64 -27 0 -58 13 -58 23 0 12 40 57 51 57
4 0 10 -7 13 -16z"/>
<path d="M8888 10143 c-109 -48 -128 -60 -128 -79 0 -24 82 -228 101 -250 6
-8 19 -14 29 -14 25 0 271 106 280 120 11 17 0 50 -16 50 -7 0 -39 -11 -71
-25 -54 -24 -58 -25 -70 -9 -24 33 -15 51 32 70 30 11 45 23 45 35 0 28 -16
31 -69 12 -28 -9 -53 -15 -56 -11 -3 3 -7 18 -8 34 -2 24 4 31 38 46 64 29 70
34 70 54 0 33 -45 25 -177 -33z"/>
<path d="M10971 10149 c-11 -17 -38 -78 -61 -136 -32 -79 -39 -107 -30 -118
10 -13 130 -65 149 -65 5 0 14 14 21 30 17 42 27 38 35 -15 6 -44 9 -47 62
-71 31 -13 58 -22 61 -20 2 3 -3 26 -12 52 -9 26 -15 48 -13 49 1 1 16 7 33
14 40 16 64 59 64 115 0 67 -39 104 -162 155 -53 23 -104 41 -113 41 -8 0 -24
-14 -34 -31z m193 -125 c33 -32 7 -94 -40 -94 -34 0 -37 15 -15 65 21 49 31
54 55 29z"/>
<path d="M8544 9977 c-73 -46 -84 -56 -77 -75 16 -42 136 -234 150 -239 18 -7
113 39 138 67 15 17 15 22 -11 72 -33 65 -113 190 -128 200 -15 10 -14 11 -72
-25z"/>
<path d="M11413 9797 c-79 -39 -143 -75 -143 -79 0 -3 13 -16 30 -28 28 -20
31 -20 60 -5 31 16 33 15 81 -15 50 -33 52 -36 49 -82 -1 -23 10 -34 75 -78
76 -51 105 -57 105 -23 0 10 5 81 11 157 5 77 8 150 5 162 -8 29 -65 64 -102
63 -16 0 -93 -32 -171 -72z m111 -25 c7 -12 -8 -65 -20 -69 -5 -1 -20 6 -34
17 l-25 20 25 20 c27 21 46 25 54 12z"/>
<path d="M8258 9772 c-53 -25 -188 -139 -188 -160 0 -27 168 -232 190 -232 16
0 101 64 157 118 51 50 69 103 53 162 -19 71 -89 130 -152 130 -13 0 -40 -8
-60 -18z m72 -87 c32 -17 46 -51 36 -90 -9 -37 -29 -31 -70 22 -41 53 -43 58
-18 72 22 13 18 13 52 -4z"/>
<path d="M11828 9513 c-49 -49 -94 -96 -99 -106 -8 -15 3 -31 63 -94 101 -105
165 -131 241 -99 78 33 120 113 98 187 -17 55 -153 199 -189 199 -18 0 -50
-25 -114 -87z m210 -116 c7 -34 -8 -67 -38 -82 -36 -19 -41 -19 -66 -1 -18 14
-17 16 26 61 46 47 72 54 78 22z"/>
<path d="M7892 9435 c-90 -46 -156 -145 -156 -235 0 -71 24 -114 82 -141 54
-27 111 -20 175 21 141 89 169 269 56 352 -43 31 -97 33 -157 3z m100 -112
c25 -22 23 -55 -7 -87 -30 -32 -68 -34 -89 -4 -21 30 -20 50 5 82 24 30 63 34
91 9z"/>
<path d="M12204 9198 c-92 -64 -164 -128 -164 -144 0 -26 81 -124 102 -124 37
0 238 152 238 179 0 25 -81 131 -100 131 -9 0 -43 -19 -76 -42z"/>
<path d="M7596 9005 c-79 -28 -150 -130 -162 -231 -13 -102 52 -184 144 -184
59 0 104 23 152 77 69 78 88 180 49 259 -34 72 -112 105 -183 79z m80 -131
c21 -32 11 -68 -28 -97 -25 -19 -28 -19 -52 -3 -20 12 -26 25 -26 51 0 68 72
101 106 49z"/>
<path d="M12379 8921 c-24 -25 -29 -38 -29 -79 0 -60 -23 -89 -46 -57 -8 10
-14 27 -14 36 0 48 -33 65 -65 32 -45 -44 40 -224 127 -269 39 -20 66 -17 93
11 22 21 25 33 25 93 0 52 4 71 15 76 17 6 45 -29 45 -56 0 -26 56 -25 65 1
14 47 -49 180 -104 217 -47 32 -76 30 -112 -5z"/>
<path d="M10420 8570 c-28 -28 -26 -39 26 -106 82 -105 126 -212 139 -341 7
-61 6 -63 -17 -63 -12 0 -45 7 -73 15 -84 26 -176 21 -248 -13 -92 -44 -141
-91 -184 -179 -34 -69 -38 -85 -41 -172 -5 -116 12 -191 70 -306 77 -154 223
-326 311 -365 51 -24 128 -25 188 -5 40 14 49 14 88 0 58 -20 137 -19 187 4
127 58 324 335 370 521 26 102 16 228 -23 312 -39 84 -100 146 -185 187 -55
27 -76 32 -134 32 -38 0 -91 -7 -119 -16 -83 -25 -85 -23 -85 43 0 132 -76
320 -170 422 -50 55 -70 60 -100 30z"/>
<path d="M7312 8548 c-15 -20 -94 -279 -88 -293 6 -16 248 -98 277 -93 18 2
27 18 46 73 13 38 21 75 19 81 -3 7 -27 19 -55 29 -28 9 -53 20 -55 24 -3 4 1
29 9 55 13 41 12 48 0 53 -26 9 -41 -4 -54 -46 -13 -44 -32 -52 -65 -28 -17
13 -17 16 -1 69 10 31 15 63 12 72 -8 19 -31 21 -45 4z"/>
<path d="M12545 8522 c-133 -47 -155 -58 -155 -80 0 -9 21 -79 47 -154 45
-129 50 -138 74 -138 14 0 28 3 32 6 3 3 -3 31 -14 61 -23 68 -24 89 -3 97 32
12 42 5 62 -44 22 -52 27 -56 52 -40 12 8 12 16 -4 60 -21 58 -14 73 33 68 19
-3 28 -14 45 -61 16 -47 24 -57 40 -55 12 2 22 11 24 21 4 22 -86 279 -102
289 -15 11 -9 12 -131 -30z"/>
<path d="M9350 8514 c-175 -116 -245 -251 -191 -369 24 -54 69 -105 91 -105
28 0 142 81 168 119 32 50 37 77 23 146 -7 33 -15 102 -18 153 -3 50 -9 92
-12 92 -3 0 -31 -16 -61 -36z"/>
<path d="M10984 8526 c-82 -19 -115 -37 -158 -88 -31 -36 -44 -68 -49 -123 -1
-20 87 -44 164 -44 92 -1 159 28 218 95 41 47 99 149 90 158 -14 14 -207 15
-265 2z"/>
<path d="M8735 8034 c-65 -20 -90 -44 -81 -79 9 -36 42 -46 91 -28 22 9 72 15
111 16 96 1 176 -37 262 -121 34 -34 70 -62 80 -62 25 0 52 31 52 59 0 31
-109 137 -179 175 -104 56 -232 71 -336 40z"/>
<path d="M9535 7971 c-57 -26 -96 -72 -111 -130 -25 -97 20 -190 111 -232 149
-69 313 70 271 232 -22 85 -104 149 -191 149 -22 0 -58 -9 -80 -19z"/>
<path d="M7254 7570 c-56 -22 -86 -103 -60 -163 51 -124 236 -87 236 48 0 93
-88 151 -176 115z"/>
<path d="M12628 7565 c-80 -45 -76 -180 6 -219 45 -21 84 -20 124 4 67 41 78
131 23 192 -22 25 -37 31 -77 34 -32 3 -58 -1 -76 -11z"/>
<path d="M9020 7555 c-83 -37 -138 -134 -124 -215 22 -124 148 -200 267 -161
47 16 114 89 123 136 25 134 -50 240 -178 251 -35 3 -65 -1 -88 -11z"/>
<path d="M9780 7509 c-112 -9 -329 -41 -401 -60 l-36 -9 5 -50 c6 -70 -14
-132 -61 -186 -58 -66 -107 -88 -192 -89 -59 0 -78 5 -124 30 -30 16 -63 44
-75 62 -12 18 -24 33 -28 33 -18 0 -117 -105 -143 -152 -25 -45 -30 -64 -30
-123 1 -115 58 -196 207 -295 164 -108 427 -191 728 -231 218 -29 563 -29 780
0 461 61 810 219 911 411 36 69 34 167 -6 239 -25 46 -137 162 -154 161 -3 -1
-26 -28 -51 -61 -62 -85 -164 -177 -224 -205 -58 -27 -156 -31 -216 -10 -29
11 -42 11 -74 0 -69 -24 -155 -18 -223 16 -118 59 -290 272 -360 445 l-32 80
-43 1 c-24 1 -95 -2 -158 -7z m-5 -103 c118 -50 185 -204 140 -322 -10 -26
-34 -65 -53 -86 -158 -175 -442 -66 -442 169 0 35 6 79 14 97 18 42 80 113
117 132 67 34 156 38 224 10z"/>
<path d="M9595 7351 c-81 -37 -134 -129 -120 -211 28 -167 230 -227 347 -103
35 37 48 73 48 134 0 143 -146 239 -275 180z"/>
<path d="M12395 6773 c-3 -10 -26 -76 -51 -147 -33 -95 -41 -132 -33 -142 11
-13 132 -62 217 -88 39 -11 54 -12 65 -3 18 15 109 272 105 295 -2 10 -14 18
-29 20 -23 3 -27 -2 -44 -58 -21 -69 -26 -74 -62 -65 -23 5 -25 9 -18 43 13
69 12 87 -9 87 -13 0 -23 -14 -35 -45 -15 -40 -20 -45 -45 -43 -40 3 -42 8
-26 61 20 72 19 96 -6 100 -13 2 -24 -4 -29 -15z"/>
<path d="M7428 6737 c-65 -22 -119 -46 -122 -53 -8 -20 44 -164 59 -164 7 0
32 7 56 15 24 9 49 13 55 11 7 -3 18 -23 25 -45 10 -34 17 -41 37 -41 26 0 26
3 6 91 -5 23 -2 27 22 33 34 9 47 -4 69 -71 17 -54 33 -65 55 -38 10 12 3 42
-36 157 -48 140 -50 143 -79 144 -16 1 -83 -16 -147 -39z"/>
<path d="M12236 6353 c-91 -91 -118 -231 -50 -262 36 -16 59 -14 112 13 75 37
96 16 40 -41 -26 -27 -30 -37 -22 -51 21 -33 62 -27 103 16 55 57 84 125 85
195 1 50 -2 62 -23 78 -33 27 -58 24 -124 -17 -52 -32 -61 -35 -74 -22 -12 13
-11 19 13 48 21 25 25 36 17 49 -16 26 -47 24 -77 -6z"/>
<path d="M7589 6350 c-159 -86 -48 -400 141 -400 117 0 181 92 146 212 -45
156 -182 246 -287 188z m144 -161 c53 -24 62 -92 15 -118 -25 -14 -29 -14 -55
5 -38 29 -44 85 -11 108 27 19 22 19 51 5z"/>
<path d="M12019 5993 c-61 -81 -62 -87 -31 -115 33 -31 168 -130 200 -147 21
-11 26 -9 56 24 19 20 42 51 52 70 15 29 16 36 3 51 -24 30 -211 164 -228 164
-9 0 -33 -21 -52 -47z"/>
<path d="M7882 5910 c-49 -22 -81 -79 -82 -142 0 -54 56 -155 108 -195 108
-82 246 -56 283 54 32 98 -60 246 -179 289 -51 18 -80 17 -130 -6z m177 -166
c18 -15 31 -35 31 -49 0 -56 -73 -75 -109 -29 -27 35 -27 69 1 88 31 22 41 20
77 -10z"/>
<path d="M11845 5764 c-52 -28 -175 -156 -175 -183 0 -29 162 -199 198 -208
20 -5 36 6 93 63 109 108 130 171 86 254 -40 76 -133 109 -202 74z m76 -89
c16 -9 34 -27 39 -41 13 -33 13 -37 -4 -60 -14 -18 -16 -17 -60 26 -50 48 -55
64 -28 79 22 13 18 14 53 -4z"/>
<path d="M8210 5489 c-49 -61 -90 -114 -90 -119 0 -11 96 -98 148 -134 107
-74 245 -22 268 101 9 48 -11 94 -64 145 -61 59 -140 118 -157 118 -8 0 -55
-50 -105 -111z m230 -111 c0 -54 -74 -100 -108 -66 -9 9 -3 22 25 57 21 25 42
49 47 53 17 11 36 -12 36 -44z"/>
<path d="M11396 5396 c-28 -26 -36 -41 -35 -67 1 -77 25 -308 32 -315 4 -4 20
2 35 13 20 15 27 29 28 57 1 20 3 38 5 40 2 2 26 18 53 34 46 30 50 30 78 16
28 -15 32 -14 71 12 75 49 117 86 111 96 -11 17 -292 148 -318 148 -14 0 -40
-15 -60 -34z m78 -149 l29 -24 -31 -21 c-17 -12 -33 -19 -35 -15 -10 18 -17
65 -12 73 9 15 17 12 49 -13z"/>
<path d="M8648 5313 c-49 -58 -142 -229 -134 -248 2 -7 35 -30 71 -51 65 -36
67 -36 85 -18 33 33 140 217 140 240 0 16 -16 31 -61 58 -69 41 -80 43 -101
19z"/>
<path d="M8896 5178 c-26 -37 -108 -237 -104 -255 4 -20 261 -134 293 -130 12
1 21 11 23 25 3 19 -6 27 -62 52 -36 16 -66 33 -66 38 0 6 8 20 18 31 l17 22
45 -20 c32 -14 48 -17 57 -9 24 20 13 37 -37 59 -54 23 -60 35 -32 67 l17 21
59 -25 c56 -24 61 -25 72 -9 7 9 11 22 8 29 -4 10 -268 126 -287 126 -3 0 -13
-10 -21 -22z"/>
<path d="M10955 5152 c-107 -47 -110 -49 -109 -79 2 -36 79 -220 105 -247 17
-19 19 -18 91 11 77 31 80 36 62 92 l-7 24 45 -27 46 -27 58 26 59 27 -48 24
c-42 22 -47 28 -40 47 29 82 -25 163 -114 173 -29 3 -64 -7 -148 -44z m155
-62 c11 -11 20 -26 20 -33 0 -19 -29 -57 -44 -57 -17 0 -50 74 -43 94 9 22 43
20 67 -4z"/>
<path d="M9313 5030 c-56 -23 -58 -92 -3 -155 22 -25 40 -51 40 -56 0 -20 -31
-20 -66 0 -41 25 -59 22 -67 -8 -14 -54 93 -114 208 -115 143 -1 179 82 74
172 -62 53 -48 93 21 57 27 -14 30 -14 44 6 8 12 12 27 9 35 -18 48 -192 91
-260 64z"/>
<path d="M10515 5020 c-35 -13 -44 -33 -90 -181 -55 -177 -56 -183 -12 -174
43 10 44 11 52 45 7 30 10 32 104 53 16 4 31 -2 49 -20 l26 -26 86 17 c47 10
88 20 93 23 19 11 -1 40 -105 152 -103 112 -114 121 -147 120 -20 0 -45 -4
-56 -9z m20 -156 c22 -34 13 -54 -25 -54 -30 0 -31 1 -25 33 13 56 23 61 50
21z"/>
<path d="M9911 4951 c-11 -7 -14 -39 -12 -152 1 -79 5 -147 10 -152 4 -4 46
-7 92 -5 l84 3 3 31 c3 31 5 32 59 39 79 10 113 44 113 114 0 44 -5 56 -34 89
l-34 37 -134 3 c-73 1 -139 -2 -147 -7z m231 -88 c22 -20 23 -51 1 -75 -29
-32 -50 -23 -57 27 -4 25 -4 49 -1 55 9 15 36 12 57 -7z"/>
</g>
</svg>
